<?xml version="1.0" encoding="utf-8"?>
<!-- Generator: Adobe Illustrator 17.0.2, SVG Export Plug-In . SVG Version: 6.00 Build 0)  -->
<!DOCTYPE svg PUBLIC "-//W3C//DTD SVG 1.1//EN" "http://www.w3.org/Graphics/SVG/1.1/DTD/svg11.dtd">
<svg version="1.1" id="Layer_1" xmlns="http://www.w3.org/2000/svg" xmlns:xlink="http://www.w3.org/1999/xlink" x="0px" y="0px"
   width="1200px" height="1200px" viewBox="0 0 1600 1600" xml:space="preserve">
<path d="M620 1500v-1512h-479v1512h479zM504 1399h-250v-50h98v-56h-100v-50h252v50h-100v56h100v50zM404 1204h-152v-158h252v52h-100v106zM352 1152v-54h-50v54h50zM504 1006h-252v-50h100v-56h-100v-50h152v106h100v50zM504 915h-50v-100h-202v-51h252v151zM504 730h-152v-84 h52v34h50v-71h-152v121h-50v-171h252v171zM504 469h-252v-171h252v171zM454 419v-71h-152v71h152zM504 263h-252v-50h106l-106 -71v-50h252v50h-155l106 71h49v50z" transform="scale(1,-1) translate(200, -1400)" />
</svg>
