<?xml version="1.0" encoding="utf-8"?>
<!-- Generator: Adobe Illustrator 17.0.2, SVG Export Plug-In . SVG Version: 6.00 Build 0)  -->
<!DOCTYPE svg PUBLIC "-//W3C//DTD SVG 1.1//EN" "http://www.w3.org/Graphics/SVG/1.1/DTD/svg11.dtd">
<svg version="1.1" id="Layer_1" xmlns="http://www.w3.org/2000/svg" xmlns:xlink="http://www.w3.org/1999/xlink" x="0px" y="0px"
   width="1200px" height="1200px" viewBox="0 0 1600 1600" xml:space="preserve">
<path d="M1150 1000q38 0 44 -6t6 -44v-250h-1200v250q0 38 6 44t44 6h300v100q0 38 31 69t69 31h300q38 0 69 -31t31 -69v-100h300zM750 1000v100h-300v-100h300zM700 500v100h500v-550q0 -38 -6 -44t-44 -6h-1100q-38 0 -44 6t-6 44v550h500v-100h200z" transform="scale(1,-1) translate(200, -1400)" />
</svg>
