<?xml version="1.0" encoding="utf-8"?>
<!-- Generator: Adobe Illustrator 17.0.2, SVG Export Plug-In . SVG Version: 6.00 Build 0)  -->
<!DOCTYPE svg PUBLIC "-//W3C//DTD SVG 1.1//EN" "http://www.w3.org/Graphics/SVG/1.1/DTD/svg11.dtd">
<svg version="1.1" id="Layer_1" xmlns="http://www.w3.org/2000/svg" xmlns:xlink="http://www.w3.org/1999/xlink" x="0px" y="0px"
   width="1200px" height="1200px" viewBox="0 0 1600 1600" xml:space="preserve">
<path d="M425 1200q12 0 20.5 -0.5t16 0t13 -1t10 -1.5t9 -3t6.5 -3.5t7 -5t7 -6t8.5 -8l9.5 -9.5l632 -631q27 -26 27 -36t-26 -36l-425 -423q-27 -27 -35.5 -27t-35.5 27l-631 631q-28 28 -33 41t-5 67v325q0 75 12.5 87.5t87.5 12.5h325zM250 1050q-41 0 -70.5 -29.5 t-29.5 -70.5t29.5 -70.5t70.5 -29.5t70.5 29.5t29.5 70.5t-29.5 70.5t-70.5 29.5z" transform="scale(1,-1) translate(200, -1400)" />
</svg>
