<?xml version="1.0" encoding="utf-8"?>
<!-- Generator: Adobe Illustrator 17.0.2, SVG Export Plug-In . SVG Version: 6.00 Build 0)  -->
<!DOCTYPE svg PUBLIC "-//W3C//DTD SVG 1.1//EN" "http://www.w3.org/Graphics/SVG/1.1/DTD/svg11.dtd">
<svg version="1.1" id="Layer_1" xmlns="http://www.w3.org/2000/svg" xmlns:xlink="http://www.w3.org/1999/xlink" x="0px" y="0px"
   width="1200px" height="1200px" viewBox="0 0 1600 1600" xml:space="preserve">
<path d="M825 1200q28 0 48.5 -11.5t30 -26t15 -39t6 -38t0.5 -35.5q0 -77 -35 -177t-90 -173h275q71 0 98 -49.5t27 -150.5q0 -135 -30.5 -234t-86 -156t-125.5 -83.5t-158 -26.5q-175 0 -400 75v575q27 54 72.5 101.5t92.5 86.5t95 84.5t92.5 116t72.5 161.5zM0 700h300v-700 h-300v700z" transform="scale(1,-1) translate(200, -1400)" />
</svg>
